<?xml version="1.0" standalone="no"?>
<!DOCTYPE svg PUBLIC "-//W3C//DTD SVG 20010904//EN"
 "http://www.w3.org/TR/2001/REC-SVG-20010904/DTD/svg10.dtd">
<svg version="1.0" xmlns="http://www.w3.org/2000/svg"
 width="300.000000pt" height="300.000000pt" viewBox="0 0 300.000000 300.000000"
 preserveAspectRatio="xMidYMid meet">

<g transform="translate(0.000000,300.000000) scale(0.100000,-0.100000)"
fill="#000000" stroke="none">
<path d="M1427 2936 c-56 -20 -104 -55 -218 -157 -55 -49 -112 -95 -125 -101
-19 -9 -24 -19 -24 -49 0 -51 -15 -88 -51 -125 -22 -23 -34 -49 -44 -97 -15
-73 -52 -168 -125 -326 -27 -59 -53 -121 -56 -139 -8 -37 -17 -40 -47 -11 -30
28 -65 41 -96 35 -23 -5 -31 2 -76 72 -48 74 -51 77 -92 80 -50 4 -53 13 -17
41 l25 20 -38 20 c-48 24 -73 67 -80 137 -5 45 -11 58 -34 74 -15 11 -41 23
-59 26 -27 6 -37 1 -71 -32 -21 -21 -39 -44 -39 -52 0 -22 27 -68 70 -117 23
-26 40 -57 40 -70 0 -18 10 -30 38 -44 49 -25 81 -60 97 -108 11 -32 19 -39
47 -44 47 -7 59 -17 53 -42 -6 -27 2 -40 39 -58 16 -8 56 -45 89 -82 l61 -68
-24 -52 c-13 -29 -25 -75 -28 -104 -3 -47 -6 -52 -30 -55 -23 -2 -26 -7 -23
-28 2 -14 4 -59 5 -100 0 -68 -4 -85 -46 -181 -51 -118 -66 -169 -49 -169 18
0 12 -20 -24 -78 -51 -84 -71 -175 -57 -264 10 -65 9 -73 -9 -98 -22 -29 -26
-62 -15 -126 7 -37 5 -41 -19 -52 -15 -7 -25 -18 -22 -25 16 -41 28 -136 22
-173 -6 -43 -5 -45 52 -104 51 -52 64 -60 93 -59 19 1 27 3 18 6 -9 2 -27 20
-39 40 -21 34 -22 38 -9 149 11 91 11 122 1 155 -10 33 -10 43 0 49 8 5 10 19
5 40 -5 25 3 51 34 117 42 90 47 112 29 144 -8 16 -4 29 21 69 23 36 34 68 40
115 7 56 16 79 61 147 41 63 54 90 55 122 0 28 11 57 32 90 18 28 32 60 32 72
0 22 50 84 68 84 15 0 189 -186 228 -244 19 -29 37 -70 41 -92 3 -21 14 -47
24 -57 11 -10 19 -31 19 -47 0 -21 10 -37 37 -59 32 -26 35 -32 23 -46 -12
-14 -10 -20 18 -42 18 -14 41 -42 52 -63 21 -42 77 -93 91 -84 14 8 11 144 -6
209 -25 98 -88 211 -211 375 -192 255 -229 318 -260 433 -18 68 -18 97 1 97
11 0 15 11 15 43 0 36 8 53 45 101 43 56 63 110 51 141 -3 9 6 26 24 42 29 25
44 62 70 171 7 26 20 48 36 59 19 12 24 22 19 40 -4 19 -2 23 18 23 21 0 25 7
36 58 19 84 59 168 98 202 18 17 38 30 43 30 5 0 10 15 12 33 3 28 7 32 36 35
25 3 37 11 55 43 12 21 28 39 35 39 7 0 12 13 12 30 0 27 -3 30 -32 30 -18 -1
-50 -7 -71 -14z"/>
<path d="M2005 2826 c-22 -6 -44 -21 -50 -33 -11 -22 -103 -103 -117 -103 -5
0 -8 9 -8 20 0 12 -12 33 -26 47 -24 24 -30 25 -85 19 -71 -7 -124 -28 -163
-64 -33 -31 -86 -112 -106 -160 -12 -32 -11 -35 19 -66 27 -28 41 -34 90 -39
76 -6 129 -35 201 -107 61 -61 82 -102 61 -123 -14 -14 -15 -77 -1 -77 6 0 13
-1 18 -2 4 -2 8 21 9 49 2 66 27 108 75 131 21 10 39 26 42 39 4 12 22 34 41
49 28 21 38 24 49 15 12 -10 15 -8 18 11 2 16 9 23 24 22 15 0 20 4 17 13 -3
8 10 28 30 47 58 53 60 151 6 277 -21 48 -23 49 -63 48 -22 0 -59 -6 -81 -13z"/>
<path d="M2385 2515 c-89 -58 -108 -79 -108 -114 0 -27 -8 -36 -48 -63 -27
-17 -51 -39 -55 -50 -10 -31 -71 -71 -98 -64 -24 6 -26 2 -55 -91 -18 -58 -53
-136 -86 -193 -54 -92 -55 -97 -54 -165 2 -65 0 -74 -34 -122 -33 -49 -35 -57
-30 -108 5 -50 4 -55 -14 -55 -32 0 -48 -28 -49 -84 -1 -28 -9 -66 -18 -83 -9
-19 -16 -56 -16 -91 0 -51 -3 -60 -17 -58 -19 1 -20 -15 -7 -100 4 -30 1 -54
-13 -85 -30 -67 -35 -98 -23 -135 9 -27 9 -38 -1 -50 -10 -12 -9 -13 5 -8 15
6 17 2 11 -28 -4 -21 -1 -56 9 -88 9 -30 16 -66 16 -82 0 -18 5 -28 15 -28 12
0 14 -8 9 -39 -6 -35 -3 -40 25 -60 17 -12 31 -28 31 -36 0 -7 9 -15 19 -18
11 -2 21 -15 23 -28 2 -20 10 -25 43 -29 37 -5 40 -8 46 -43 8 -50 15 -54 47
-29 15 12 59 38 99 56 47 22 73 41 78 56 l7 22 15 -21 c19 -28 39 -27 47 3 4
17 20 29 66 45 71 26 89 47 155 181 51 104 66 125 107 146 17 9 29 25 33 46
10 49 55 127 76 133 15 5 19 16 19 50 0 35 6 52 30 78 21 24 30 45 30 68 0 51
17 103 71 214 54 111 55 117 35 109 -11 -4 -14 27 -18 173 -6 202 -25 287 -77
338 -26 27 -28 33 -24 90 5 56 2 66 -41 151 -25 51 -46 105 -46 120 -1 63 -57
147 -120 179 -49 25 -64 23 -115 -10z m63 -285 c49 -47 51 -51 32 -62 -27 -17
-25 -26 5 -20 30 5 31 3 4 -42 -20 -34 -20 -34 0 -29 17 4 22 -4 37 -56 9 -34
24 -67 33 -74 17 -13 22 -88 7 -119 -5 -10 -1 -27 11 -44 14 -23 18 -48 18
-129 -1 -111 -26 -214 -68 -275 -20 -29 -23 -40 -15 -67 13 -46 -4 -97 -57
-179 -31 -49 -45 -80 -45 -105 0 -34 -2 -36 -26 -31 -23 4 -25 2 -19 -17 4
-13 -1 -47 -12 -82 -14 -46 -22 -57 -35 -53 -12 4 -18 -4 -23 -34 -8 -50 -28
-79 -119 -173 l-77 -79 -67 0 c-57 0 -72 4 -97 25 -29 24 -29 26 -11 39 18 14
18 16 -3 45 -12 17 -32 37 -44 46 -21 14 -21 15 -2 29 26 19 23 76 -6 117
l-23 32 28 -7 c24 -6 28 -4 22 10 -32 83 -27 177 20 369 13 55 24 110 24 123
0 25 10 28 28 10 9 -10 16 -9 29 4 15 16 15 18 -8 37 -24 20 -24 20 -2 21 39
0 38 24 -1 46 -28 15 -29 28 -4 39 17 7 24 21 28 50 4 31 9 39 23 37 12 -2 17
4 17 23 0 14 12 49 27 78 15 29 30 76 33 107 4 42 10 57 26 65 11 6 19 15 17
22 -3 7 3 9 16 6 17 -4 21 -1 21 21 0 15 7 43 15 63 8 19 15 53 15 74 0 40 8
45 63 40 14 -2 17 6 17 51 l0 53 48 22 c26 11 47 22 48 22 0 1 24 -21 52 -49z"/>
</g>
</svg>
