<?xml version="1.0" standalone="no"?>
<!DOCTYPE svg PUBLIC "-//W3C//DTD SVG 20010904//EN"
 "http://www.w3.org/TR/2001/REC-SVG-20010904/DTD/svg10.dtd">
<svg version="1.0" xmlns="http://www.w3.org/2000/svg"
 width="225.000000pt" height="225.000000pt" viewBox="0 0 225.000000 225.000000"
 preserveAspectRatio="xMidYMid meet">

<g transform="translate(0.000000,225.000000) scale(0.100000,-0.100000)"
fill="#000000" stroke="none">
<path d="M1463 2230 c-143 -30 -242 -142 -251 -284 -4 -67 7 -118 42 -196 6
-14 -7 -15 -97 -12 -93 4 -226 -12 -279 -33 -12 -5 -21 2 -33 24 -14 27 -14
32 -1 37 30 11 26 64 -7 85 -11 7 -154 -47 -176 -66 -20 -19 7 -70 38 -70 15
0 28 -10 38 -29 8 -15 13 -29 11 -30 -2 -2 -28 -17 -58 -34 -187 -105 -341
-308 -402 -528 -31 -113 -31 -325 0 -438 82 -298 302 -520 608 -612 78 -24
106 -27 229 -27 123 0 151 3 230 27 368 111 612 413 632 783 15 264 -84 507
-278 687 -39 36 -65 66 -58 66 33 0 137 60 173 100 58 65 80 121 80 210 0 134
-70 242 -197 305 -79 39 -167 52 -244 35z m199 -78 c189 -83 240 -318 97 -446
-21 -20 -54 -42 -73 -50 -44 -18 -126 -31 -126 -20 0 5 12 37 27 72 23 55 29
63 47 57 63 -20 60 -22 100 76 20 50 34 95 29 99 -19 17 -327 140 -333 133 -4
-5 -23 -48 -43 -96 l-36 -88 35 -16 c28 -14 34 -21 30 -39 -11 -44 -46 -114
-56 -114 -15 0 -69 88 -81 135 -15 55 -7 126 22 181 63 123 227 176 361 116z
m-307 -546 c221 -75 396 -236 480 -444 60 -149 70 -349 25 -497 -41 -133 -95
-221 -200 -326 -83 -84 -108 -103 -192 -143 -103 -50 -241 -86 -334 -86 -77 0
-216 27 -289 56 -224 90 -395 285 -461 525 -24 87 -25 280 -1 369 67 253 258
461 497 540 104 35 137 39 270 36 104 -3 138 -8 205 -30z"/>
<path d="M863 1520 c-28 -11 -28 -8 -3 -64 21 -49 27 -53 54 -33 16 12 16 15
-3 60 -11 26 -22 47 -23 46 -2 0 -13 -4 -25 -9z"/>
<path d="M1351 1484 c-23 -52 -25 -64 -12 -64 5 0 16 -3 25 -6 12 -4 21 6 36
41 11 26 19 49 18 50 -2 1 -13 7 -25 14 -20 10 -24 8 -42 -35z"/>
<path d="M1314 1352 c-33 -22 -284 -438 -284 -471 0 -58 61 -110 114 -97 62
15 79 59 157 405 30 134 34 177 13 163z"/>
<path d="M490 1150 c-14 -26 -13 -28 18 -43 55 -29 68 -29 80 -2 11 23 9 27
-13 35 -14 6 -36 14 -50 20 -20 8 -27 6 -35 -10z"/>
<path d="M1700 1143 c-44 -19 -42 -16 -31 -46 l10 -27 48 21 c59 25 57 23 43
48 -12 24 -22 25 -70 4z"/>
<path d="M523 660 c-42 -19 -51 -33 -35 -58 7 -10 18 -9 55 5 46 17 53 26 41
57 -8 20 -10 20 -61 -4z"/>
<path d="M1666 654 c-10 -27 -7 -31 43 -52 43 -17 50 -18 55 -5 12 30 5 41
-34 57 -50 20 -56 20 -64 0z"/>
<path d="M856 306 c-20 -52 -20 -62 0 -70 27 -11 32 -7 49 38 19 48 16 61 -14
69 -15 4 -23 -4 -35 -37z"/>
<path d="M1340 330 c-13 -8 -13 -14 1 -52 16 -44 33 -55 58 -39 12 8 12 16 -3
55 -18 46 -29 53 -56 36z"/>
</g>
</svg>
